<?xml version="1.0" encoding="UTF-8" standalone="no"?>
<!-- Created with Inkscape (http://www.inkscape.org/) -->

<svg
   version="1.1"
   id="svg9"
   width="786.66669"
   height="226.66667"
   viewBox="0 0 786.66669 226.66667"
   sodipodi:docname="GeoQueimadasLupa.svg"
   inkscape:version="1.2.1 (9c6d41e410, 2022-07-14)"
   xmlns:inkscape="http://www.inkscape.org/namespaces/inkscape"
   xmlns:sodipodi="http://sodipodi.sourceforge.net/DTD/sodipodi-0.dtd"
   xmlns="http://www.w3.org/2000/svg"
   xmlns:svg="http://www.w3.org/2000/svg">
  <defs
     id="defs13" />
  <sodipodi:namedview
     id="namedview11"
     pagecolor="#505050"
     bordercolor="#eeeeee"
     borderopacity="1"
     inkscape:showpageshadow="0"
     inkscape:pageopacity="0"
     inkscape:pagecheckerboard="0"
     inkscape:deskcolor="#505050"
     showgrid="false"
     inkscape:zoom="1.3545888"
     inkscape:cx="405.65815"
     inkscape:cy="69.024635"
     inkscape:window-width="1920"
     inkscape:window-height="991"
     inkscape:window-x="-9"
     inkscape:window-y="-9"
     inkscape:window-maximized="1"
     inkscape:current-layer="g15" />
  <g
     inkscape:groupmode="layer"
     inkscape:label="Image"
     id="g15"
     style="display:inline">
    <path
       id="path202"
       style="display:inline;fill:#8d0801;fill-opacity:1;stroke-width:1.33333"
       d="m 98.125,8.4375 c -4.684987,-0.1635961 -8.365234,0.2277071 -8.365234,1.2675781 0,0.7328589 5.400022,6.9997199 12.000004,13.9277339 6.59995,6.928019 12,13.248954 12,14.044922 0,0.795973 0.86906,3.527209 1.93164,6.070313 2.20814,5.284916 2.23571,5.295175 7.30859,2.671875 4.58101,-2.36892 9.95315,-8.572387 13.58203,-15.685547 2.4947,-4.889985 2.53273,-5.459809 0.52735,-7.675781 -3.09626,-3.421305 -16.1095,-10.069067 -24.5918,-12.560547 C 108.49964,9.3178724 102.81001,8.6010961 98.125,8.4375 Z M 80.724609,9.921875 c -0.427005,0.016579 -1.014082,0.177925 -1.792968,0.400391 -8.185493,2.337925 -20.620714,9.581031 -27.695313,16.130859 -8.82261,8.168181 -16.073168,20.692483 -19.363281,33.445313 -4.159412,16.122316 -2.210978,27.725818 8.173828,48.675782 5.694281,11.48747 6.468871,12.49003 7.220703,9.33398 2.057851,-8.6384 1.159076,-19.478417 -2.216797,-26.730466 -1.841802,-3.95656 -3.091503,-7.451464 -2.777343,-7.765625 0.861113,-0.861111 8.852789,3.495411 14.376953,7.835938 2.690476,2.114001 6.805575,6.68156 9.142578,10.150393 2.718285,4.03474 3.89618,5.10509 3.271484,2.97265 C 67.367479,98.578372 64.290541,93.233518 58.949219,86.804688 52.824718,79.433219 51.091797,75.364543 51.091797,68.335938 51.091797,58.3431 55.57946,49.808235 66.498047,39.03125 78.040996,27.637993 79.787245,24.875877 81.136719,15.876953 81.850153,11.119425 82.005635,9.8721385 80.724609,9.921875 Z M 236.0625,56.867188 c -17.56478,0.709993 -34.4783,6.358372 -45.82812,16.074218 -7.29216,6.242285 -14.2365,16.894544 -17.92774,27.501954 -4.26144,12.24455 -4.25993,34.25255 0.002,46.5957 7.67872,22.23967 22.54887,34.97971 46.07422,39.47656 11.89051,2.27288 29.31682,1.39794 44.86328,-2.25195 l 11.84766,-2.78125 v -31.22265 -31.22071 h -21.33398 -21.33399 v 6.66602 6.66601 h 13.33399 13.33398 v 19.36719 19.36524 l -3.66797,1.57226 c -2.06237,0.88366 -10.0826,1.57919 -18.33203,1.58984 -13.33709,0.017 -15.42848,-0.32807 -23.05664,-3.81054 -10.53955,-4.81164 -20.24176,-15.05377 -24.39844,-25.75391 -4.07284,-10.48444 -4.4237,-32.48503 -0.67383,-42.33008 5.52046,-14.493376 14.21331,-23.254021 28.60157,-28.828121 9.4684,-3.668133 31.7526,-4.057818 42.08789,-0.736328 3.60849,1.159673 6.98071,1.848558 7.49414,1.53125 0.51342,-0.317313 1.2697,-2.239567 1.67968,-4.271485 0.41003,-2.031916 1.11688,-4.657773 1.57227,-5.833984 0.65417,-1.689714 -0.79509,-2.59038 -6.90625,-4.291016 -6.43822,-1.791642 -13.15472,-2.800341 -19.87891,-3.074218 -2.52153,-0.102706 -5.04347,-0.101429 -7.55273,0 z m 132.31445,5.203124 c -9.09628,-0.324404 -18.48394,1.434924 -27.41015,5.521485 -7.39451,3.385295 -17.875,10.792589 -17.875,12.634765 0,0.530544 2.74777,2.900869 6.10547,5.267579 l 6.10546,4.304687 2.43946,-3.101562 c 7.25302,-9.220725 25.31948,-13.794606 38.89648,-9.847657 22.57474,6.562652 35.52493,37.177551 28.43945,67.230471 -5.24808,22.25989 -18.59679,34.70713 -38.51953,35.91797 -6.56803,0.39919 -11.35818,1.56586 -15.64648,3.80859 -3.39925,1.77777 -7.5999,3.27994 -9.33399,3.33984 -5.56859,0.1921 4.34775,3.71906 15.1836,5.4004 5.31564,0.82475 16.86411,3.80224 25.66406,6.61718 8.79995,2.81497 20.20066,6.29737 25.33399,7.73633 12.16665,3.41055 12.50726,3.39482 14.02148,-0.58789 3.68358,-9.68848 4.14516,-9.16705 -10.93945,-12.35547 -7.56223,-1.5984 -16.14406,-3.5765 -19.07032,-4.39648 l -5.32031,-1.49024 7.34571,-3.71484 c 8.16277,-4.1276 18.30272,-14.17038 22.38281,-22.16797 5.14656,-10.08814 7.42577,-20.59698 7.48047,-34.48242 0.0599,-15.21988 -1.91404,-24.62749 -7.52149,-35.833986 C 406.98731,73.582021 388.38878,62.78401 368.37695,62.070312 Z m -257.32812,0.302735 c -0.45056,-0.23808 -0.62305,1.769164 -0.62305,6.523437 0,6.859161 -0.61356,9.416967 -3.05469,12.71875 l -3.05664,4.132813 6.92969,9.925781 c 5.83688,8.359912 6.66191,10.249072 5.22656,11.978512 -2.81708,3.39444 -4.4111,2.33199 -11.3789,-7.58398 l -6.666019,-9.486329 -8.875,-0.105469 c -4.880914,-0.05763 -8.392297,0.195839 -7.804687,0.5625 1.164893,0.726895 4.053136,32.037588 3.105468,33.666018 -0.320069,0.55 -2.666501,1 -5.21289,1 -5.754254,0 -6.558566,1.85964 -4.652344,10.74804 1.779751,8.29875 0.233182,15.31231 -4.65625,21.12305 l -3.359375,3.99219 15.728516,30.63281 c 8.649969,16.84839 16.102312,30.23026 16.5625,29.73633 0.460184,-0.49393 10.907581,-22.79015 23.214841,-49.54688 l 22.37696,-48.65039 -0.11133,-15.58593 c -0.125,-17.515189 -2.39969,-28.564719 -8.00391,-38.87305 l -3.64648,-6.703125 -0.82813,6.681641 c -1.03182,8.325298 -4.42511,13.779296 -8.57422,13.779296 -2.49192,0 -3.8603,-1.62747 -7.00976,-8.333984 -2.15242,-4.583309 -4.44046,-9.698169 -5.08399,-11.365234 -0.21596,-0.559456 -0.39668,-0.887437 -0.54687,-0.966797 z m 228.58789,54.851563 c -10.61094,-0.025 -18.93547,4.59416 -24.07227,13.35937 -5.19695,8.86801 -5.99397,23.75787 -1.79297,33.52344 3.30604,7.68503 10.0761,14.4606 15.67969,15.69531 2.00321,0.44142 4.24127,1.02583 4.97461,1.29883 0.73333,0.27299 4.03399,0.17148 7.33399,-0.22656 14.99154,-1.80822 23.95608,-12.26076 25.04296,-29.19727 1.35848,-21.16801 -9.08234,-34.41052 -27.16601,-34.45312 z m 424.54687,0.96094 c -12.60949,-0.32808 -22.41859,8.1561 -20.62304,19.2207 0.99108,6.10728 4.79208,9.99201 14.01953,14.33203 10.58223,4.97725 13.51172,8.03499 13.51172,14.10156 0,9.05909 -10.45469,13.25617 -22.53516,9.04493 -4.78627,-1.66852 -5.02549,-1.57731 -5.66992,2.14648 -0.37301,2.15541 0.67478,2.96388 5.53906,4.27539 6.81304,1.83692 16.18335,1.0625 21.70899,-1.79492 4.65627,-2.40787 8.94612,-9.24705 8.95312,-14.27149 0.0101,-7.71141 -3.60466,-12.33602 -13.75977,-17.60546 -12.32844,-6.39727 -14.23632,-8.14649 -14.23632,-13.05079 0,-6.13404 4.58578,-10.21289 11.48047,-10.21289 3.12439,0 7.15921,0.56275 8.96679,1.25 2.78587,1.05918 3.39969,0.81517 4.03321,-1.60742 0.93585,-3.57881 0.89387,-3.61598 -5.83985,-5.1289 -1.89004,-0.42467 -3.74746,-0.65235 -5.54883,-0.69922 z m -146.83789,0.71679 -4.67578,0.40039 -4.67773,0.40235 -10.37891,30 c -5.70849,16.4999 -10.41032,30.45 -10.44922,31 -0.0389,0.55 1.62246,1 3.69336,1 3.518,0 3.97214,-0.65674 6.90235,-10 l 3.13671,-10 h 11.65235 11.65429 l 3.21485,9.66601 c 3.01849,9.0792 3.47014,9.69369 7.44141,10.08594 l 4.22851,0.41602 -3.79101,-10.41602 c -2.08548,-5.72964 -6.97746,-19.8989 -10.8711,-31.48633 z m 101.33399,0 -4.67774,0.40039 -4.67578,0.40235 -10.3789,30 c -5.70855,16.4999 -10.41228,30.45 -10.45118,31 -0.0389,0.55 1.62443,1 3.69532,1 3.51795,0 3.97017,-0.65674 6.90039,-10 l 3.13672,-10 h 11.65429 11.6543 l 3.21289,9.66601 c 3.01849,9.0792 3.4721,9.69369 7.44336,10.08594 l 4.22852,0.41602 -3.79297,-10.41602 c -2.08548,-5.72964 -6.97746,-19.8989 -10.8711,-31.48633 z m -442.25391,0.13672 v 31.33203 31.33399 h 17.33399 17.33203 v -3.33399 -3.33203 h -13.33203 -13.33399 v -11.33398 -11.33399 h 12 c 11.91105,0 12,-0.0234 12,-3.33203 0,-3.30859 -0.0889,-3.33398 -12,-3.33398 h -12 v -10 -10 h 12.66602 c 12.62217,0 12.66797,-0.0123 12.66797,-3.33399 v -3.33203 H 293.0918 Z m 149.03711,0 0.54688,23.66602 c 0.49011,21.18301 0.85595,24.257 3.48632,29.28906 2.9073,5.56184 5.55918,7.7041 12.18555,9.84766 4.7688,1.54262 14.42732,0.29513 19.15625,-2.47461 9.31805,-5.45769 11.58789,-13.65532 11.58789,-41.84375 v -18.48438 h -4 -4 v 22.04297 c 0,23.75422 -1.10327,29.10946 -6.82226,33.11524 -1.70731,1.19579 -5.53812,2.17382 -8.51172,2.17382 -2.97366,0 -6.80247,-0.97803 -8.50977,-2.17382 -5.71899,-4.00578 -6.82226,-9.36102 -6.82226,-33.11524 v -22.04297 h -4.14844 z m 48.29688,0 v 31.33203 31.33399 h 17.33203 17.33398 v -3.33399 -3.33203 H 495.0918 481.75977 v -11.33398 -11.33399 h 12 c 11.911,0 12,-0.0234 12,-3.33203 0,-3.30859 -0.0889,-3.33398 -12,-3.33398 h -12 v -10 -10 h 12.66601 c 12.62222,0 12.66602,-0.0123 12.66602,-3.33399 v -3.33203 h -16.66602 z m 37.33203,0 v 31.33203 31.33399 h 4 4 v -31.33399 -31.33203 h -4 z m 20.58984,0 c -5.42679,0 -5.25753,-0.74592 -7.24805,32 -0.7801,12.83328 -1.68688,24.98333 -2.01367,27 -0.53185,3.28225 -0.19526,3.66602 3.21094,3.66602 h 3.80469 l 0.86914,-21 c 0.47713,-11.54995 1.22306,-23.97715 1.6582,-27.61524 l 0.79102,-6.61328 2.91797,9.94727 c 1.60468,5.47138 5.56279,17.89861 8.79687,27.61523 5.11099,15.35587 6.25563,17.66602 8.74414,17.66602 2.51129,0 3.95123,-3.07111 11.73047,-25 4.87775,-13.74995 8.8565,-25.74936 8.8418,-26.66602 -0.0147,-0.91667 0.4881,-1.66797 1.11718,-1.66797 0.62908,0 1.57746,11.17739 2.10743,24.83789 0.52998,13.66057 1.27994,25.65997 1.66601,26.66602 0.38606,1.00607 2.17338,1.83008 3.97266,1.83008 3.22547,0 3.26072,-0.12633 2.50586,-9 -0.86267,-10.14079 -3.39453,-48.82199 -3.39453,-51.85352 0,-1.4638 -1.28273,-1.86733 -4.95704,-1.56054 l -4.95507,0.41406 -6.9375,18.66601 c -3.81542,10.26662 -7.64458,21.51672 -8.50977,25 -0.86517,3.48333 -1.96455,6.32927 -2.44141,6.32227 -0.47685,-0.007 -2.23661,-4.52734 -3.9121,-10.04492 -1.67553,-5.51762 -5.48856,-16.91148 -8.47266,-25.32032 l -5.42578,-15.28906 z m 127.47656,0.53321 c -2.93389,-0.0991 -5.98014,-0.0178 -9.0664,0.25585 l -9.66602,0.85743 v 29.7539 29.75586 l 3.66602,0.63672 c 2.01662,0.3503 8.46736,0.3644 14.33398,0.0312 19.7271,-1.11956 29.62379,-8.54438 32.68945,-24.52344 2.54111,-13.2447 -1.53216,-25.39939 -10.5,-31.33398 -4.85928,-3.21575 -12.65526,-5.13639 -21.45703,-5.43359 z m -320.16406,3.46679 c 5.18736,0 7.45984,0.75573 10.85352,3.61133 12.39617,10.43072 12.39617,34.34663 0,44.77734 -6.05928,5.09855 -15.45054,5.09855 -21.50977,0 -12.05371,-10.14252 -12.59095,-33.31387 -1.01562,-43.77148 4.37229,-3.95014 6.06013,-4.61719 11.67187,-4.61719 z m 320.05664,1.83008 c 6.41367,0.43944 13.90839,2.78978 17.57031,5.87109 5.2883,4.4498 7.81259,10.48501 7.77539,18.58789 -0.05,10.87667 -6.30832,20.97442 -15.05664,24.28907 -2.06435,0.78217 -7.61509,1.42187 -12.33398,1.42187 h -8.58008 v -24.51953 -24.51758 l 4.75391,-0.89257 c 1.71577,-0.32188 3.73319,-0.38672 5.87109,-0.24024 z m -46.625,2.20898 c 0.54545,1e-5 6.47271,17.74809 9.00391,26.96094 0.56769,2.06625 -0.46354,2.33203 -9.00391,2.33203 -8.54038,0 -9.5716,-0.26578 -9.0039,-2.33203 2.53115,-9.21285 8.45844,-26.96093 9.0039,-26.96094 z m 101.33399,0 c 0.54546,1e-5 6.47075,17.74809 9.00195,26.96094 0.5677,2.06625 -0.46157,2.33203 -9.00195,2.33203 -8.54042,0 -9.5716,-0.26578 -9.00391,-2.33203 2.5312,-9.21285 8.45846,-26.96093 9.00391,-26.96094 z" />
    <ellipse
       style="display:inline;fill:#000000;fill-opacity:1;stroke:none;stroke-width:1.15439;stroke-opacity:1"
       id="path481"
       cx="89.715553"
       cy="68.679619"
       rx="23.99543"
       ry="23.610481" />
    <ellipse
       style="display:inline;fill:#ffffff;stroke:none;stroke-width:1.14114;stroke-opacity:1"
       id="path481-6"
       cx="89.723831"
       cy="68.653374"
       rx="23.744589"
       ry="23.315811" />
    <rect
       style="fill:#ffffff;fill-opacity:1;stroke:none;stroke-width:1.07987;stroke-opacity:1"
       id="rect3872"
       width="7.5520787"
       height="31.383249"
       x="28.209131"
       y="126.02518"
       transform="matrix(0.79202087,-0.61049401,0.57674331,0.81692543,0,0)" />
  </g>
</svg>
